<mxfile host="app.diagrams.net" agent="Mozilla/5.0 (Windows NT 10.0; Win64; x64) AppleWebKit/537.36 (KHTML, like Gecko) Chrome/129.0.0.0 Safari/537.36" version="24.7.17">
  <diagram id="C5RBs43oDa-KdzZeNtuy" name="Page-1">
    <mxGraphModel dx="1318" dy="616" grid="1" gridSize="10" guides="1" tooltips="1" connect="1" arrows="1" fold="1" page="1" pageScale="1" pageWidth="827" pageHeight="1169" math="0" shadow="0">
      <root>
        <mxCell id="WIyWlLk6GJQsqaUBKTNV-0" />
        <mxCell id="WIyWlLk6GJQsqaUBKTNV-1" parent="WIyWlLk6GJQsqaUBKTNV-0" />
        <mxCell id="WIyWlLk6GJQsqaUBKTNV-2" value="" style="rounded=0;html=1;jettySize=auto;orthogonalLoop=1;fontSize=11;endArrow=block;endFill=0;endSize=8;strokeWidth=1;shadow=0;labelBackgroundColor=none;edgeStyle=orthogonalEdgeStyle;" parent="WIyWlLk6GJQsqaUBKTNV-1" target="WIyWlLk6GJQsqaUBKTNV-6" edge="1">
          <mxGeometry relative="1" as="geometry">
            <mxPoint x="150" y="110" as="sourcePoint" />
          </mxGeometry>
        </mxCell>
        <mxCell id="cdqA0KJlWaNnWs8eYzD0-27" style="edgeStyle=none;curved=1;rounded=0;orthogonalLoop=1;jettySize=auto;html=1;exitX=1;exitY=0.5;exitDx=0;exitDy=0;fontSize=12;startSize=8;endSize=8;entryX=1.016;entryY=0.884;entryDx=0;entryDy=0;entryPerimeter=0;" edge="1" parent="WIyWlLk6GJQsqaUBKTNV-1" source="WIyWlLk6GJQsqaUBKTNV-6" target="cdqA0KJlWaNnWs8eYzD0-30">
          <mxGeometry relative="1" as="geometry">
            <mxPoint x="610" y="105.17647058823536" as="targetPoint" />
          </mxGeometry>
        </mxCell>
        <mxCell id="WIyWlLk6GJQsqaUBKTNV-6" value="Is it a security Incident?" style="rhombus;whiteSpace=wrap;html=1;shadow=0;fontFamily=Helvetica;fontSize=12;align=center;strokeWidth=1;spacing=6;spacingTop=-4;" parent="WIyWlLk6GJQsqaUBKTNV-1" vertex="1">
          <mxGeometry x="240" y="45" width="140" height="130" as="geometry" />
        </mxCell>
        <mxCell id="_6PPVcA-6KtyrMoVFvnq-0" value="Suspecious Event Detected" style="ellipse;whiteSpace=wrap;html=1;" parent="WIyWlLk6GJQsqaUBKTNV-1" vertex="1">
          <mxGeometry y="70" width="180" height="80" as="geometry" />
        </mxCell>
        <mxCell id="cdqA0KJlWaNnWs8eYzD0-52" style="edgeStyle=none;curved=1;rounded=0;orthogonalLoop=1;jettySize=auto;html=1;exitX=0.5;exitY=1;exitDx=0;exitDy=0;fontSize=12;startSize=8;endSize=8;" edge="1" parent="WIyWlLk6GJQsqaUBKTNV-1" source="cdqA0KJlWaNnWs8eYzD0-6">
          <mxGeometry relative="1" as="geometry">
            <mxPoint x="591.4117647058824" y="220" as="targetPoint" />
          </mxGeometry>
        </mxCell>
        <mxCell id="cdqA0KJlWaNnWs8eYzD0-6" value="Incident Response&lt;div&gt;&amp;amp;&amp;nbsp;&lt;/div&gt;&lt;div&gt;Remmediation&lt;/div&gt;" style="rounded=0;whiteSpace=wrap;html=1;" vertex="1" parent="WIyWlLk6GJQsqaUBKTNV-1">
          <mxGeometry x="514" y="70" width="155" height="70" as="geometry" />
        </mxCell>
        <mxCell id="cdqA0KJlWaNnWs8eYzD0-45" style="edgeStyle=none;curved=1;rounded=0;orthogonalLoop=1;jettySize=auto;html=1;exitX=0;exitY=0.5;exitDx=0;exitDy=0;fontSize=12;startSize=8;endSize=8;entryX=1;entryY=0.5;entryDx=0;entryDy=0;" edge="1" parent="WIyWlLk6GJQsqaUBKTNV-1" source="cdqA0KJlWaNnWs8eYzD0-7" target="cdqA0KJlWaNnWs8eYzD0-20">
          <mxGeometry relative="1" as="geometry">
            <mxPoint x="480" y="362.82352941176475" as="targetPoint" />
          </mxGeometry>
        </mxCell>
        <mxCell id="cdqA0KJlWaNnWs8eYzD0-7" value="Was it a false&amp;nbsp;&lt;div&gt;positive?&lt;/div&gt;" style="rhombus;whiteSpace=wrap;html=1;" vertex="1" parent="WIyWlLk6GJQsqaUBKTNV-1">
          <mxGeometry x="526.5" y="223.25" width="130" height="133" as="geometry" />
        </mxCell>
        <mxCell id="cdqA0KJlWaNnWs8eYzD0-13" value="Is this a phishing&amp;nbsp;&lt;div&gt;email?&lt;/div&gt;" style="rhombus;whiteSpace=wrap;html=1;" vertex="1" parent="WIyWlLk6GJQsqaUBKTNV-1">
          <mxGeometry x="150" y="229.75" width="125" height="120" as="geometry" />
        </mxCell>
        <mxCell id="cdqA0KJlWaNnWs8eYzD0-47" style="edgeStyle=none;curved=1;rounded=0;orthogonalLoop=1;jettySize=auto;html=1;exitX=0;exitY=0.5;exitDx=0;exitDy=0;entryX=1;entryY=0.5;entryDx=0;entryDy=0;fontSize=12;startSize=8;endSize=8;" edge="1" parent="WIyWlLk6GJQsqaUBKTNV-1" source="cdqA0KJlWaNnWs8eYzD0-20" target="cdqA0KJlWaNnWs8eYzD0-13">
          <mxGeometry relative="1" as="geometry" />
        </mxCell>
        <mxCell id="cdqA0KJlWaNnWs8eYzD0-20" value="Is this a&lt;div&gt;&amp;nbsp;malware?&lt;/div&gt;" style="rhombus;whiteSpace=wrap;html=1;" vertex="1" parent="WIyWlLk6GJQsqaUBKTNV-1">
          <mxGeometry x="343" y="226.5" width="140" height="126.5" as="geometry" />
        </mxCell>
        <mxCell id="cdqA0KJlWaNnWs8eYzD0-30" value="YES" style="text;html=1;align=center;verticalAlign=middle;resizable=0;points=[];autosize=1;strokeColor=none;fillColor=none;fontSize=16;" vertex="1" parent="WIyWlLk6GJQsqaUBKTNV-1">
          <mxGeometry x="454" y="81" width="60" height="30" as="geometry" />
        </mxCell>
        <mxCell id="cdqA0KJlWaNnWs8eYzD0-46" value="NO" style="text;html=1;align=center;verticalAlign=middle;resizable=0;points=[];autosize=1;strokeColor=none;fillColor=none;fontSize=16;" vertex="1" parent="WIyWlLk6GJQsqaUBKTNV-1">
          <mxGeometry x="489" y="261" width="50" height="30" as="geometry" />
        </mxCell>
        <mxCell id="cdqA0KJlWaNnWs8eYzD0-48" value="NO" style="text;html=1;align=center;verticalAlign=middle;resizable=0;points=[];autosize=1;strokeColor=none;fillColor=none;fontSize=16;" vertex="1" parent="WIyWlLk6GJQsqaUBKTNV-1">
          <mxGeometry x="269" y="261" width="50" height="30" as="geometry" />
        </mxCell>
      </root>
    </mxGraphModel>
  </diagram>
</mxfile>
